<?xml version="1.0" standalone="no"?>
<!DOCTYPE svg PUBLIC "-//W3C//DTD SVG 1.0//EN" "http://www.w3.org/TR/2001/REC-SVG-20010904/DTD/svg10.dtd">
<svg xmlns="http://www.w3.org/2000/svg" xmlns:xlink="http://www.w3.org/1999/xlink" id="body_1" width="351" height="264">

<g transform="matrix(0.48953974 0 0 0.49070632 0 0)">
	<g transform="matrix(16.8125 0 0 16.8125 89.49999 -0)">
        <path d="M31.106 15L3.278 15L11.603 6.707C 11.9939995 6.316 11.9939995 5.6829996 11.603 5.2929997C 11.212 4.902 10.5789995 4.902 10.188999 5.2929997L10.188999 5.2929997L0.28899956 15.191999C -0.09600043 15.577 -0.09600043 16.220999 0.28899956 16.605999L0.28899956 16.605999L10.188999 26.505999C 10.579999 26.897 11.212999 26.897 11.602999 26.505999C 11.993999 26.114998 11.993999 25.481998 11.602999 25.092L11.602999 25.092L3.278 17L31.105999 17C 31.657999 17 32.106 16.552 32.106 16C 32.106 15.448 31.658 15 31.106 15z" stroke="#FFFFFF" stroke-width="1" fill="#FFFFFF" fill-rule="nonzero" />
		<g>
		</g>
		<g>
		</g>
		<g>
		</g>
		<g>
		</g>
		<g>
		</g>
		<g>
		</g>
	</g>
</g>
</svg>